<svg xmlns="http://www.w3.org/2000/svg" version="1.1" viewBox="2 1 1492.5 380"><path d="M 65.223 300.557 C 62.548 302.430, 62.175 308.071, 64.593 310.078 C 67.235 312.270, 72.991 311.730, 75.129 309.089 C 77.542 306.109, 77.501 303.501, 75 301 C 72.607 298.607, 68.285 298.412, 65.223 300.557 M 140 330.500 L 140 362 146.430 362 L 152.859 362 153.180 346.411 L 153.500 330.822 156.306 328.411 C 159.770 325.435, 164.061 325.306, 166.595 328.102 C 168.268 329.948, 168.539 332.142, 168.819 346.102 L 169.138 362 175.650 362 L 182.162 362 181.831 344.250 C 181.474 325.089, 180.849 322.418, 175.864 318.730 C 170.614 314.846, 159.050 315.223, 154.858 319.414 L 152.493 321.780 152.854 310.390 L 153.216 299 146.608 299 L 140 299 140 330.500 M 368 310.174 L 368 321.349 365.468 318.970 C 363.497 317.119, 361.556 316.506, 356.718 316.208 C 348.857 315.724, 344.645 318.214, 341 325.501 C 338.867 329.766, 338.509 331.822, 338.563 339.500 C 338.631 349.196, 340.373 354.261, 345.153 358.661 C 350.527 363.608, 360.701 363.576, 365.899 358.597 L 368.574 356.034 369.722 359.074 C 370.808 361.953, 371.126 362.099, 375.685 361.807 L 380.500 361.500 380.764 330.250 L 381.028 299 374.514 299 L 368 299 368 310.174 M 574.750 300.080 C 572.468 301.409, 572.361 308.225, 574.593 310.078 C 576.646 311.781, 582.354 311.781, 584.407 310.078 C 586.452 308.380, 586.465 302.608, 584.429 300.571 C 582.661 298.804, 577.400 298.537, 574.750 300.080 M 766 301 C 762.373 304.627, 763.578 309.376, 768.539 311.013 C 773.831 312.759, 777.955 310.050, 777.985 304.807 C 778.015 299.559, 769.990 297.010, 766 301 M 789.453 300.261 C 789.187 300.954, 789.089 315.017, 789.235 331.511 L 789.500 361.500 794.247 361.805 C 798.506 362.078, 799.112 361.847, 800.157 359.555 C 801.246 357.166, 803 356.058, 803 357.759 C 803 358.970, 807.177 361.250, 810.993 362.121 C 818.116 363.748, 825.381 359.982, 829.251 352.655 C 831.057 349.236, 831.451 346.818, 831.473 339 C 831.497 330.694, 831.186 328.939, 829 325.039 C 825.505 318.802, 821.008 316, 814.492 316 C 810.598 316, 808.358 316.625, 805.640 318.470 L 802 320.940 802 309.970 L 802 299 795.969 299 C 792.038 299, 789.769 299.439, 789.453 300.261 M 1165 330.500 L 1165 362 1171.500 362 L 1178 362 1178 348.468 C 1178 333.996, 1179.115 329.079, 1182.850 327.080 C 1186.297 325.236, 1189.714 325.821, 1191.927 328.635 C 1193.820 331.041, 1194 332.605, 1194 346.635 L 1194 362 1200.579 362 L 1207.159 362 1206.829 343.703 C 1206.466 323.489, 1206.017 321.866, 1199.696 317.899 C 1197.132 316.290, 1195.171 315.960, 1189.784 316.228 C 1184.122 316.509, 1182.630 316.981, 1180.284 319.231 L 1177.500 321.900 1177.836 310.450 L 1178.172 299 1171.586 299 L 1165 299 1165 330.500 M 1323 330.500 L 1323 362 1329.500 362 L 1336 362 1336 330.500 L 1336 299 1329.500 299 L 1323 299 1323 330.500 M 2 332.500 L 2 362 8.500 362 L 15 362 15 349.500 L 15 337 26 337 L 37 337 37 349.500 L 37 362 43.500 362 L 50 362 50 332.500 L 50 303 43.500 303 L 37 303 37 314.500 L 37 326 26 326 L 15 326 15 314.500 L 15 303 8.500 303 L 2 303 2 332.500 M 296 332.500 L 296 362 313 362 L 330 362 330 356.500 L 330 351 319.500 351 L 309 351 309 344.036 L 309 337.072 318.750 336.786 L 328.500 336.500 328.802 331.250 L 329.105 326 319.052 326 L 309 326 309 320 L 309 314 319.500 314 L 330 314 330 308.500 L 330 303 313 303 L 296 303 296 332.500 M 719.235 332.250 L 719.500 361.500 737.750 361.773 L 756 362.045 756 356.523 L 756 351 744 351 L 732 351 732 327 L 732 303 725.485 303 L 718.970 303 719.235 332.250 M 1023 308.500 L 1023 314 1031 314 L 1039 314 1039 338.048 L 1039 362.095 1045.250 361.798 L 1051.500 361.500 1051.768 337.750 L 1052.036 314 1059.518 314 L 1067 314 1067 308.500 L 1067 303 1045 303 L 1023 303 1023 308.500 M 541.546 311.861 C 540.312 315.576, 539.115 317.162, 536.466 318.588 C 533.794 320.027, 533 321.090, 533 323.227 C 533 325.641, 533.388 326, 536 326 L 539 326 539 339.032 C 539 354.110, 540.095 357.942, 545.171 360.630 C 548.891 362.599, 557.753 362.849, 562.250 361.112 C 564.682 360.172, 565 359.532, 565 355.572 L 565 351.094 560.018 351.684 C 552.396 352.587, 552 351.905, 552 337.878 L 552 326 558 326 L 564 326 564 321 L 564 316 558 316 L 552 316 552 311.500 L 552 307 547.580 307 C 543.182 307, 543.153 307.023, 541.546 311.861 M 63.667 316.667 C 63.300 317.033, 63 327.383, 63 339.667 L 63 362 69.500 362 L 76 362 76 339 L 76 316 70.167 316 C 66.958 316, 64.033 316.300, 63.667 316.667 M 94.984 317.812 C 92.567 319.069, 90.643 321.319, 88.700 325.158 C 86.286 329.929, 85.900 331.866, 85.900 339.201 C 85.900 349.081, 87.745 354.766, 92.156 358.477 C 98.123 363.499, 107.500 363.697, 112.597 358.909 L 115 356.651 115 360.779 C 115 371.930, 109.984 373.710, 90.750 369.385 C 88.032 368.774, 88 368.825, 88 373.812 L 88 378.857 93.378 380.060 C 96.404 380.737, 102.493 381.067, 107.302 380.815 C 114.447 380.440, 116.511 379.927, 119.896 377.688 C 127.312 372.780, 127.500 371.911, 127.500 342.500 L 127.500 316.500 122.340 316.201 C 117.336 315.911, 117.161 315.992, 116.525 318.886 C 115.872 321.857, 115.861 321.861, 113.895 319.895 C 109.652 315.652, 100.975 314.697, 94.984 317.812 M 202.384 317.913 C 194.324 321.573, 190.467 329.798, 191.231 341.698 C 191.827 350.981, 195.065 356.284, 202.342 359.897 C 207.925 362.669, 217.824 363.149, 225.439 361.017 L 230 359.740 230 354.753 C 230 350.058, 229.869 349.804, 227.750 350.412 C 215.169 354.019, 208.225 353.270, 205.506 348.011 C 202.429 342.062, 202.564 342, 218.500 342 L 233 342 233 339.049 C 233 329.113, 228.215 320.241, 221.298 317.351 C 216.650 315.409, 207.285 315.687, 202.384 317.913 M 242 338.993 L 242 362.095 248.250 361.798 L 254.500 361.500 255 347.274 C 255.600 330.216, 256.280 328.973, 265.441 328.213 L 271 327.752 271 321.876 L 271 316 266.868 316 C 262.254 316, 256.630 318.955, 254.824 322.328 C 253.741 324.352, 253.609 324.244, 252.560 320.489 C 251.481 316.627, 251.296 316.490, 246.723 316.195 L 242 315.890 242 338.993 M 392.366 317.490 C 392.051 318.309, 391.964 326.296, 392.172 335.240 C 392.578 352.731, 393.309 355.699, 398.077 359.226 C 404.129 363.703, 415.004 363.271, 420.150 358.351 L 422.801 355.817 423.480 358.908 C 424.127 361.853, 424.393 362, 429.079 362 L 434 362 434 338.952 L 434 315.905 427.750 316.202 L 421.500 316.500 421 331.500 C 420.389 349.825, 419.440 352.026, 412.168 351.985 C 406.074 351.950, 405 348.721, 405 330.435 L 405 316 398.969 316 C 394.549 316, 392.785 316.398, 392.366 317.490 M 455.500 317.890 C 447.370 321.642, 444 327.974, 444 339.500 C 444 351.090, 448.102 358.544, 455.915 361.150 C 460.874 362.804, 470.749 362.561, 475.250 360.674 C 478.881 359.152, 479 358.942, 479 354.051 C 479 351.273, 478.605 349, 478.122 349 C 477.639 349, 475.629 349.675, 473.654 350.500 C 467.784 352.953, 463.304 352.457, 459.815 348.969 C 456.885 346.038, 456.797 345.688, 457.167 338.361 C 457.511 331.550, 457.831 330.542, 460.331 328.392 C 463.548 325.625, 466.109 325.421, 471.922 327.472 L 476.095 328.945 478.051 324.382 C 479.126 321.873, 479.764 319.427, 479.467 318.947 C 477.505 315.772, 461.608 315.071, 455.500 317.890 M 494.750 317.600 C 492.137 318.403, 490 319.482, 490 319.996 C 490 320.511, 490.771 322.550, 491.714 324.527 C 493.071 327.372, 493.852 327.999, 495.464 327.537 C 503.922 325.108, 507.081 324.716, 509.456 325.798 C 511.597 326.773, 513.969 331.395, 512.870 332.448 C 512.667 332.643, 508.508 333.287, 503.629 333.880 C 498.750 334.472, 493.350 335.767, 491.629 336.756 C 481.509 342.575, 484.086 359.398, 495.500 362.028 C 501.815 363.483, 509.730 361.440, 512.990 357.512 C 514.195 356.061, 514.469 356.210, 515.619 358.946 C 516.784 361.716, 517.327 362, 521.452 362 L 526 362 525.978 345.250 C 525.952 325.314, 524.847 321.493, 518.115 318.059 C 513.235 315.569, 502.068 315.350, 494.750 317.600 M 573.710 316.623 C 573.320 317.014, 573 327.383, 573 339.667 L 573 362 579.519 362 L 586.038 362 585.769 339.250 L 585.500 316.500 579.960 316.206 C 576.913 316.045, 574.101 316.232, 573.710 316.623 M 606.197 318.131 C 592.426 324.948, 591.331 349.870, 604.410 358.787 C 613.518 364.998, 628.143 363.028, 634.318 354.759 C 638.019 349.804, 639.311 344.588, 638.756 336.839 C 638.126 328.030, 634.480 321.701, 628.093 318.328 C 622.144 315.186, 612.325 315.098, 606.197 318.131 M 648.448 317.275 C 648.179 317.976, 648.081 328.213, 648.229 340.025 L 648.500 361.500 654.750 361.798 L 661 362.095 661 350.597 C 661 338.295, 662.306 329.821, 664.480 328.017 C 666.791 326.099, 672.326 325.728, 674.500 327.345 C 676.318 328.698, 676.546 330.321, 677 345.167 L 677.500 361.500 683.750 361.798 L 690 362.095 690 344.282 C 690 328.940, 689.747 325.996, 688.173 323.062 C 685.715 318.479, 680.810 316, 674.200 316 C 668.622 316, 665.925 316.955, 662.369 320.187 C 660.243 322.120, 660.237 322.118, 659.171 319.062 C 658.190 316.247, 657.735 316, 653.521 316 C 650.729 316, 648.746 316.498, 648.448 317.275 M 765 339 L 765 362 771 362 L 777 362 777 339 L 777 316 771 316 L 765 316 765 339 M 841.667 316.667 C 841.300 317.033, 841 327.383, 841 339.667 L 841 362 847.500 362 L 854 362 854 348.950 C 854 331.393, 855.951 328, 866.047 328 C 869.476 328, 870.001 327.702, 870.011 325.750 C 870.017 324.512, 870.311 321.751, 870.664 319.613 L 871.306 315.727 865.621 316.198 C 860.940 316.587, 859.359 317.229, 856.670 319.835 C 852.890 323.499, 852 323.736, 852 321.082 C 852 317.020, 850.908 316, 846.560 316 C 844.235 316, 842.033 316.300, 841.667 316.667 M 884.750 317.600 C 882.138 318.403, 880 319.482, 880 319.996 C 880 320.511, 880.771 322.550, 881.714 324.527 C 883.071 327.372, 883.852 327.999, 885.464 327.537 C 893.922 325.108, 897.081 324.716, 899.456 325.798 C 901.597 326.773, 903.969 331.395, 902.870 332.448 C 902.667 332.643, 898.575 333.279, 893.777 333.862 C 879.718 335.569, 875.571 338.932, 875.571 348.626 C 875.571 357.548, 880.909 362.443, 890.526 362.338 C 895.687 362.282, 900.615 360.373, 902.990 357.512 C 904.195 356.061, 904.469 356.210, 905.619 358.946 C 906.788 361.726, 907.318 362, 911.531 362 L 916.159 362 915.829 343.750 C 915.458 323.181, 914.956 321.549, 907.887 317.942 C 903.240 315.571, 891.893 315.403, 884.750 317.600 M 928 338.945 L 928 362 933.887 362 L 939.773 362 940.157 348.002 C 940.528 334.508, 940.635 333.910, 943.137 331.409 C 945.012 329.533, 947.223 328.632, 951.116 328.157 L 956.500 327.500 956.800 321.750 L 957.100 316 953 316 C 948.185 316, 943.962 317.962, 941.189 321.487 L 939.202 324.013 938.318 320.257 C 937.466 316.634, 937.266 316.489, 932.717 316.195 L 928 315.890 928 338.945 M 959 317.227 C 959 317.953, 962.852 328.164, 967.561 339.919 C 975.386 359.456, 976.019 361.540, 974.926 364.180 C 973.171 368.415, 969.359 371, 964.865 371 L 961 371 961 376 L 961 381 967.250 380.995 C 974.155 380.989, 979.120 378.712, 982.968 373.786 C 984.883 371.335, 1005 319.438, 1005 316.949 C 1005 316.303, 1002.473 316.021, 998.329 316.204 L 991.658 316.500 987.160 330.750 C 984.686 338.587, 982.401 344.988, 982.081 344.974 C 981.761 344.959, 979.454 338.547, 976.953 330.724 L 972.406 316.500 965.703 316.204 C 960.671 315.982, 959 316.237, 959 317.227 M 1084.030 317.583 C 1075.804 321.152, 1072.610 327.129, 1072.546 339.076 C 1072.504 346.907, 1072.762 348.076, 1075.509 352.521 C 1079.694 359.294, 1085.666 362.294, 1094.962 362.294 C 1098.766 362.294, 1103.930 361.719, 1106.439 361.017 L 1111 359.740 1111 354.421 L 1111 349.102 1107.250 350.694 C 1105.188 351.569, 1100.700 352.334, 1097.278 352.393 C 1091.887 352.486, 1090.726 352.166, 1088.589 350 C 1087.232 348.625, 1085.821 346.262, 1085.453 344.750 L 1084.783 342 1099.392 342 L 1114 342 1113.994 337.750 C 1113.982 328.097, 1110.217 320.911, 1103.599 317.905 C 1098.580 315.626, 1088.909 315.467, 1084.030 317.583 M 1133.193 317.291 C 1128.697 319, 1123.365 324.412, 1121.810 328.845 C 1121.105 330.855, 1120.560 335.963, 1120.601 340.195 C 1120.740 354.931, 1127.622 362.250, 1141.337 362.250 C 1144.843 362.250, 1149.352 361.709, 1151.356 361.047 L 1155 359.845 1155 353.800 C 1155 349.087, 1154.725 347.980, 1153.750 348.774 C 1151.350 350.731, 1144.197 352.259, 1140.599 351.585 C 1135.901 350.703, 1133.800 346.763, 1133.800 338.833 C 1133.800 328.921, 1138.350 324.609, 1146.507 326.791 C 1148.914 327.434, 1151.389 328.082, 1152.006 328.231 C 1152.623 328.379, 1153.959 326.356, 1154.973 323.736 C 1156.814 318.980, 1156.814 318.971, 1154.659 317.804 C 1151.552 316.123, 1137.171 315.779, 1133.193 317.291 M 1219 339.048 L 1219 362.095 1225.250 361.798 L 1231.500 361.500 1232 346.500 C 1232.312 337.140, 1232.975 330.670, 1233.762 329.293 C 1235.459 326.326, 1241.214 325.255, 1244.366 327.320 C 1247.453 329.343, 1248 332.559, 1248 348.673 L 1248 362.095 1254.250 361.798 L 1260.500 361.500 1260.475 343.977 C 1260.452 328.277, 1260.241 326.093, 1258.441 322.977 C 1255.816 318.433, 1250.850 316.004, 1244.184 316.002 C 1238.621 316, 1235.923 316.956, 1232.369 320.187 C 1230.243 322.120, 1230.237 322.118, 1229.171 319.062 C 1228.191 316.251, 1227.731 316, 1223.552 316 L 1219 316 1219 339.048 M 1281.500 317.890 C 1273.502 321.581, 1270 328.010, 1270 339 C 1270 353.552, 1277.724 362.141, 1290.922 362.265 C 1298.243 362.334, 1302.934 360.696, 1306.771 356.731 C 1311.326 352.025, 1313.003 347.175, 1312.978 338.782 C 1312.944 327.608, 1309.181 321.063, 1300.768 317.548 C 1295.718 315.437, 1286.458 315.602, 1281.500 317.890 M 1355.907 318.324 C 1347.996 322.497, 1344.331 330.714, 1345.367 341.953 C 1346.563 354.920, 1354.732 362.432, 1367.505 362.312 C 1378.106 362.212, 1385.387 356.661, 1388.116 346.599 C 1389.367 341.986, 1388.681 331.188, 1386.918 327.756 C 1384.985 323.991, 1379.697 318.927, 1376.128 317.422 C 1370.753 315.156, 1361.098 315.587, 1355.907 318.324 M 1406.500 316.964 C 1400.149 319.623, 1396.779 326.101, 1396.198 336.764 C 1395.648 346.867, 1397.197 353.006, 1401.431 357.495 C 1407.570 364.004, 1419.454 364.007, 1424.235 357.500 C 1425.428 355.876, 1425.103 364.680, 1423.870 367.385 C 1423.249 368.749, 1421.386 370.426, 1419.730 371.112 C 1416.811 372.321, 1412.680 371.940, 1400.750 369.361 C 1398.038 368.775, 1398 368.835, 1398 373.765 L 1398 378.763 1402.443 379.881 C 1404.886 380.497, 1410.624 380.990, 1415.193 380.978 C 1427.896 380.944, 1434.445 377.091, 1437.050 368.115 C 1437.694 365.898, 1437.983 355.221, 1437.800 340.500 L 1437.500 316.500 1432.746 316.195 C 1428.444 315.919, 1427.900 316.132, 1427.025 318.434 L 1426.058 320.979 1422.389 318.489 C 1418.562 315.892, 1410.833 315.150, 1406.500 316.964 M 1444 316.960 C 1444 317.539, 1447.825 327.562, 1452.500 339.233 C 1457.175 350.905, 1461 361.070, 1461 361.823 C 1461 364.372, 1457.633 368.909, 1454.901 370.041 C 1453.406 370.660, 1450.904 371.017, 1449.341 370.834 C 1446.554 370.506, 1446.500 370.595, 1446.500 375.500 L 1446.500 380.500 1452.195 380.798 C 1460.659 381.242, 1466.548 377.869, 1470.318 370.419 C 1473.101 364.918, 1490.751 317.085, 1490.201 316.534 C 1489.093 315.426, 1478.223 316.027, 1477.251 317.250 C 1476.704 317.938, 1474.306 324.800, 1471.922 332.500 L 1467.586 346.500 1462.543 331.500 L 1457.500 316.500 1450.750 316.204 C 1446.507 316.018, 1444 316.299, 1444 316.960 M 207.189 327.039 C 205.985 328.160, 205 329.474, 205 329.957 C 205 330.441, 204.727 331.548, 204.393 332.418 C 203.870 333.780, 204.911 334, 211.893 334 C 219.809 334, 220 333.943, 220 331.573 C 220 328.557, 215.700 325, 212.054 325 C 210.582 325, 208.392 325.918, 207.189 327.039 M 1088.756 326.977 C 1087.373 328.065, 1086.025 330.090, 1085.760 331.477 L 1085.277 334 1093.746 334 C 1101.057 334, 1102.131 333.784, 1101.607 332.418 C 1101.273 331.548, 1101 330.423, 1101 329.918 C 1101 327.963, 1096.864 325, 1094.135 325 C 1092.559 325, 1090.138 325.890, 1088.756 326.977 M 103.321 327.150 C 100.029 328.800, 98.725 333.119, 99.165 340.909 C 99.634 349.220, 101.528 352, 106.721 352 C 111.383 352, 113.590 350.616, 114.895 346.872 C 116.919 341.067, 115.662 330.624, 112.638 328.114 C 110.610 326.432, 105.756 325.929, 103.321 327.150 M 356.482 326.907 C 353.254 328.277, 351.500 332.739, 351.500 339.578 C 351.500 347.776, 353.893 351.364, 359.652 351.798 C 364.476 352.161, 366.922 349.894, 367.987 344.073 C 368.861 339.290, 367.571 330.143, 365.768 328.339 C 364.047 326.619, 358.997 325.840, 356.482 326.907 M 613.315 327.007 C 610.647 328.082, 609.439 330.252, 608.564 335.539 C 607.676 340.906, 609.381 348.080, 612.061 350.250 C 615.289 352.864, 620.188 352.494, 623.076 349.417 C 625.224 347.127, 625.500 345.923, 625.500 338.830 C 625.500 331.300, 625.334 330.683, 622.694 328.413 C 619.783 325.909, 617.055 325.500, 613.315 327.007 M 805.596 328.313 C 801.111 332.798, 801.400 346.476, 806.061 350.250 C 811.302 354.495, 817.312 350.640, 818.459 342.297 C 820.159 329.940, 812.402 321.507, 805.596 328.313 M 1287.364 327.170 C 1284.306 328.650, 1283 332.220, 1283 339.097 C 1283 348.106, 1285.565 352, 1291.500 352 C 1295.187 352, 1296.963 350.973, 1298.537 347.928 C 1300.262 344.592, 1300.476 334.139, 1298.890 330.657 C 1297.037 326.592, 1291.819 325.013, 1287.364 327.170 M 1361.570 328.340 C 1360.283 329.626, 1358.914 332.551, 1358.527 334.840 C 1356.932 344.283, 1360.742 352, 1367 352 C 1373.258 352, 1377.068 344.283, 1375.473 334.840 C 1374.590 329.611, 1371.128 326, 1367 326 C 1365.093 326, 1363.013 326.896, 1361.570 328.340 M 1412.306 328.413 C 1409.642 330.705, 1409.500 331.255, 1409.500 339.308 C 1409.500 349.475, 1411.001 352, 1417.044 352 C 1422.995 352, 1425.105 349.557, 1425.715 341.959 C 1426.349 334.069, 1424.395 328.481, 1420.483 326.994 C 1416.635 325.530, 1415.410 325.743, 1412.306 328.413 M 503.585 342.044 C 500.165 343.066, 499.036 344.550, 499.015 348.050 C 498.986 352.905, 503.326 354.434, 508.923 351.540 C 511.725 350.091, 512.960 347.571, 512.986 343.250 C 512.998 341.358, 512.483 341.014, 509.750 341.086 C 507.962 341.133, 505.188 341.564, 503.585 342.044 M 893.585 342.044 C 890.165 343.066, 889.036 344.550, 889.015 348.050 C 888.986 352.907, 893.326 354.434, 898.928 351.537 C 902.091 349.901, 903 348.201, 903 343.918 C 903 341.275, 902.694 341.008, 899.750 341.086 C 897.962 341.133, 895.188 341.564, 893.585 342.044" stroke="none" fill="#1565c0" fill-rule="evenodd"/><path d="M 574.544 2.543 C 565.916 5.803, 562.618 11.292, 562.549 22.500 C 562.483 33.215, 564.993 37.866, 572.947 41.773 C 577.589 44.052, 579.813 44.500, 586.500 44.500 C 593.389 44.500, 595.333 44.083, 600.500 41.500 C 608.937 37.281, 611.291 32.674, 610.759 21.423 C 610.283 11.365, 608.006 7.167, 601.212 3.821 C 595.257 0.889, 580.760 0.194, 574.544 2.543 M 655 114.524 L 655 228.047 672.178 227.774 L 689.355 227.500 692.928 218.752 C 694.926 213.859, 697.093 210.003, 697.847 210.002 C 698.587 210.001, 702.043 212.611, 705.526 215.802 C 717.238 226.534, 726.648 230.008, 743.960 229.988 C 755.782 229.975, 762.478 228.532, 771.455 224.064 C 787.953 215.853, 799.563 198.700, 804.672 174.984 C 807.456 162.061, 807.216 127.056, 804.256 114.328 C 796.052 79.054, 772.381 59.133, 741.365 61.400 C 724.060 62.664, 711.019 69.481, 701.182 82.403 C 699.966 83.999, 698.814 85.124, 698.620 84.903 C 698.426 84.681, 698.632 79.775, 699.078 74 C 699.523 68.225, 699.913 49.438, 699.944 32.250 L 700 1 677.500 1 L 655 1 655 114.524 M 1344.246 114.250 L 1344.500 227.500 1366.500 227.500 L 1388.500 227.500 1389.097 179.500 C 1389.584 140.299, 1389.984 130.399, 1391.279 125.491 C 1396.454 105.875, 1403.863 98.989, 1420.638 98.200 C 1431.737 97.679, 1435.557 98.793, 1440.858 104.094 C 1448.544 111.780, 1448.408 110.630, 1448.986 172.500 L 1449.500 227.500 1472 227.500 L 1494.500 227.500 1494.500 168.500 C 1494.500 115.532, 1494.319 108.729, 1492.728 101.957 C 1488.886 85.606, 1480.714 74.562, 1467.768 68.223 C 1457.431 63.163, 1450.034 61.634, 1436 61.660 C 1424.947 61.679, 1422.530 62.010, 1415.123 64.515 C 1405.362 67.817, 1396.768 73.712, 1391.965 80.399 C 1388.073 85.819, 1386.516 86.282, 1387.423 81.750 C 1387.781 79.963, 1388.338 61.063, 1388.662 39.750 L 1389.249 1 1366.620 1 L 1343.991 1 1344.246 114.250 M 5.245 120.750 L 5.500 227.500 28 227.500 L 50.500 227.500 50.760 181.750 L 51.020 136 92.500 136 L 133.980 136 134.240 181.750 L 134.500 227.500 157 227.500 L 179.500 227.500 179.755 120.731 L 180.009 13.962 157.255 14.231 L 134.500 14.500 134.239 55.750 L 133.978 97 92.489 97 L 51 97 51 55.500 L 51 14 27.995 14 L 4.991 14 5.245 120.750 M 233.245 120.750 L 233.500 227.500 294.500 227.500 L 355.500 227.500 355.772 208.250 L 356.043 189 317.522 189 L 279 189 279 162.513 L 279 136.025 314.750 135.763 L 350.500 135.500 350.772 116.750 L 351.044 98 315.022 98 L 279 98 279 75 L 279 52 317.500 52 L 356 52 356 33 L 356 14 294.495 14 L 232.991 14 233.245 120.750 M 400 121.007 L 400 228.014 465.750 227.757 L 531.500 227.500 531.500 208.500 L 531.500 189.500 488.250 189.239 L 445 188.979 445 101.489 L 445 14 422.500 14 L 400 14 400 121.007 M 826 33.500 L 826 53 854.495 53 L 882.989 53 883.245 140.250 L 883.500 227.500 906 227.500 L 928.500 227.500 928.755 140.250 L 929.011 53 958.005 53 L 987 53 987 33.500 L 987 14 906.500 14 L 826 14 826 33.500 M 1069.814 62.078 C 1051.965 64.696, 1039.165 70.793, 1027.843 82.068 C 1021.395 88.489, 1019.397 91.337, 1015.197 100.097 C 1009.341 112.311, 1007.444 119.533, 1005.991 135.149 C 1004.342 152.864, 1006.563 171.206, 1012.039 185.098 C 1017.678 199.406, 1031.097 213.867, 1045.226 220.862 C 1058.589 227.477, 1066.704 229.198, 1087.131 229.745 C 1111.035 230.386, 1125.149 228.091, 1142.250 220.784 L 1147 218.754 1147 201.377 C 1147 191.820, 1146.612 184, 1146.138 184 C 1145.664 184, 1142.324 185.339, 1138.715 186.975 C 1125.197 193.104, 1110.707 196.043, 1093.462 196.153 C 1074.119 196.276, 1062.911 190.547, 1056.002 177.004 C 1054.031 173.141, 1051.044 162.207, 1051.015 158.750 C 1051.001 157.105, 1054.161 157, 1103.500 157 L 1156 157 1156 143.072 C 1156 113.651, 1150.535 95.835, 1137.152 81.622 C 1122.748 66.327, 1095.253 58.346, 1069.814 62.078 M 1248 62.032 C 1237.969 63.218, 1229.298 65.749, 1220 70.205 C 1203.749 77.992, 1190.465 94.642, 1185.039 114.027 C 1179.826 132.646, 1180.042 162.597, 1185.523 181.500 C 1191.128 200.828, 1201.886 214.526, 1217.261 221.911 C 1231.423 228.713, 1235.750 229.500, 1259 229.500 C 1281.786 229.500, 1284.878 228.945, 1299.250 222.279 L 1307 218.685 1307 199.259 C 1307 188.575, 1306.662 179.986, 1306.250 180.173 C 1305.838 180.360, 1301.225 182.632, 1296 185.222 C 1284.307 191.019, 1275.700 193.083, 1262.839 193.174 C 1253.658 193.239, 1252.468 193.012, 1246.466 190.058 C 1235.462 184.641, 1230.050 175.225, 1227.909 157.775 C 1226.620 147.265, 1227.331 133.456, 1229.620 124.571 C 1236.355 98.429, 1256.023 91.675, 1289.500 104.009 C 1299.559 107.715, 1298.585 108.557, 1305.686 90.013 C 1309.159 80.945, 1312 73.238, 1312 72.886 C 1312 71.868, 1303.076 68.303, 1293.793 65.613 C 1279.743 61.541, 1263.129 60.242, 1248 62.032 M 564.244 145.750 L 564.500 227.500 586.500 227.500 L 608.500 227.500 608.756 145.750 L 609.012 64 586.500 64 L 563.988 64 564.244 145.750 M 1069.176 97.035 C 1059.821 101.762, 1054.891 109.534, 1052.550 123.250 L 1051.909 127 1082.455 127 L 1113 127 1113 123.605 C 1113 117.707, 1109.282 107.690, 1105.417 103.174 C 1099.909 96.739, 1095.142 94.702, 1084.500 94.235 C 1075.979 93.861, 1075.163 94.010, 1069.176 97.035 M 718.175 99.687 C 706.430 103.841, 701.225 115.588, 700.316 140 C 699.493 162.081, 703.382 179.203, 710.842 186.348 C 718.040 193.241, 733.200 195.502, 742.388 191.054 C 749.912 187.412, 755.382 179.637, 758.638 167.956 C 761.248 158.596, 761.256 130.993, 758.653 122.530 C 754.977 110.583, 749.954 103.609, 742.499 100.105 C 737.048 97.542, 724.834 97.333, 718.175 99.687 M 732.432 327 C 732.432 340.475, 732.574 345.988, 732.747 339.250 C 732.920 332.512, 732.920 321.488, 732.747 314.750 C 732.574 308.012, 732.432 313.525, 732.432 327 M 1038.431 337.500 C 1038.432 350.700, 1038.574 355.962, 1038.747 349.193 C 1038.921 342.424, 1038.920 331.624, 1038.746 325.193 C 1038.572 318.762, 1038.431 324.300, 1038.431 337.500 M 764.428 339 C 764.428 351.375, 764.571 356.438, 764.747 350.250 C 764.922 344.063, 764.922 333.938, 764.747 327.750 C 764.571 321.563, 764.428 326.625, 764.428 339 M 777.428 339 C 777.428 351.375, 777.571 356.438, 777.747 350.250 C 777.922 344.063, 777.922 333.938, 777.747 327.750 C 777.571 321.563, 777.428 326.625, 777.428 339 M 927.428 339 C 927.428 351.375, 927.571 356.438, 927.747 350.250 C 927.922 344.063, 927.922 333.938, 927.747 327.750 C 927.571 321.563, 927.428 326.625, 927.428 339 M 940.382 349.500 C 940.384 356.100, 940.546 358.670, 940.741 355.211 C 940.937 351.752, 940.936 346.352, 940.738 343.211 C 940.540 340.070, 940.380 342.900, 940.382 349.500 M 210.750 342.743 C 214.738 342.932, 221.262 342.932, 225.250 342.743 C 229.238 342.553, 225.975 342.397, 218 342.397 C 210.025 342.397, 206.762 342.553, 210.750 342.743 M 1092.296 342.744 C 1096.583 342.932, 1103.333 342.931, 1107.296 342.742 C 1111.258 342.552, 1107.750 342.399, 1099.500 342.400 C 1091.250 342.401, 1088.008 342.556, 1092.296 342.744" stroke="none" fill="#5c5962" fill-rule="evenodd"/></svg>