<svg version="1.1" id="Layer_1" xmlns="http://www.w3.org/2000/svg" xmlns:xlink="http://www.w3.org/1999/xlink" x="0px" y="0px"
	 width="100%" viewBox="0 0 1928 448" enable-background="new 0 0 1928 448" xml:space="preserve">
<path fill="#FFFFFF" opacity="1.000000" stroke="none" 
	d="
M1406.000000,449.000000 
	C937.333313,449.000000 469.166656,449.000000 1.000000,449.000000 
	C1.000000,299.666656 1.000000,150.333328 1.000000,1.000000 
	C643.666687,1.000000 1286.333374,1.000000 1929.000000,1.000000 
	C1929.000000,150.333328 1929.000000,299.666656 1929.000000,449.000000 
	C1754.833374,449.000000 1580.666626,449.000000 1406.000000,449.000000 
M121.754326,302.816254 
	C161.803879,315.070892 201.554489,314.692413 240.537430,298.841248 
	C279.697510,282.918091 308.565704,255.287064 328.532013,218.297348 
	C329.954926,215.661224 329.812775,210.534897 328.141083,208.146149 
	C318.713318,194.674347 309.863556,180.451920 298.484802,168.753662 
	C257.095428,126.202164 206.065979,110.145935 147.776703,119.256805 
	C91.766602,128.011429 51.828995,160.377655 23.870884,208.565643 
	C22.425406,211.057037 22.878298,215.313431 23.793274,218.341400 
	C24.916298,222.057831 27.260609,225.472946 29.414654,228.799667 
	C51.839695,263.433136 81.745583,288.810760 121.754326,302.816254 
M512.247925,183.499161 
	C512.247925,189.116714 512.247925,194.734283 512.247925,200.677826 
	C503.094055,200.677826 494.611969,200.772812 486.133179,200.646820 
	C479.705627,200.551315 473.282227,200.174149 466.856995,199.922318 
	C466.669830,193.637283 466.393951,187.353333 466.318024,181.066956 
	C466.223938,173.277023 466.295471,165.485092 466.295471,157.671997 
	C459.997925,157.671997 454.280884,157.671997 448.602356,157.671997 
	C448.602356,191.963989 448.602356,225.863449 448.602356,259.836731 
	C454.594025,259.836731 460.230042,259.836731 466.295471,259.836731 
	C466.295471,257.859314 466.295410,256.051392 466.295502,254.243454 
	C466.295929,242.747482 466.205719,231.249924 466.408600,219.757523 
	C466.434723,218.276520 467.956757,215.560135 468.825409,215.544022 
	C483.104797,215.278946 497.390594,215.355728 512.220581,215.355728 
	C512.220581,230.385712 512.220581,244.964325 512.220581,259.743347 
	C518.497620,259.743347 524.222961,259.743347 530.008789,259.743347 
	C530.008789,225.552933 530.008789,191.628250 530.008789,157.672852 
	C523.996399,157.672852 518.279175,157.672852 512.248047,157.672852 
	C512.248047,166.207199 512.248047,174.353195 512.247925,183.499161 
M616.872925,169.999008 
	C616.872925,165.900040 616.872925,161.801086 616.872925,157.658325 
	C595.000427,157.658325 573.799072,157.658325 552.570984,157.658325 
	C552.570984,191.920166 552.570984,225.802750 552.570984,259.612366 
	C574.428223,259.612366 595.959473,259.612366 617.477417,259.612366 
	C617.477417,254.616821 617.477417,250.022797 617.477417,244.891785 
	C601.661743,244.891785 586.111694,244.891785 570.303040,244.891785 
	C570.303040,235.866623 570.391785,227.382355 570.254883,218.901733 
	C570.206970,215.930252 571.533752,215.258011 574.173828,215.289322 
	C582.498169,215.388092 590.824341,215.323746 599.149841,215.322952 
	C603.925171,215.322495 608.700500,215.322861 613.556580,215.322861 
	C613.556580,210.176056 613.556580,205.721619 613.556580,200.677155 
	C611.575562,200.677155 609.786926,200.677200 607.998291,200.677139 
	C596.842163,200.676773 585.684570,200.579041 574.530701,200.736588 
	C571.273438,200.782593 570.141235,199.726288 570.238586,196.454712 
	C570.436584,189.800201 570.446777,183.130951 570.235596,176.477280 
	C570.128906,173.117050 571.428833,172.232773 574.598694,172.267578 
	C587.085388,172.404648 599.575012,172.373962 612.062195,172.259613 
	C613.654541,172.245041 615.239075,171.370590 616.872925,169.999008 
M1424.960205,239.529480 
	C1427.813110,228.690018 1430.666016,217.850555 1433.518921,207.011093 
	C1433.909668,207.039810 1434.300415,207.068527 1434.691162,207.097244 
	C1439.463135,224.651810 1444.235107,242.206375 1448.997559,259.725525 
	C1454.608643,259.725525 1459.866821,259.725525 1465.376709,259.725525 
	C1473.123779,234.853531 1480.812988,210.167068 1488.654419,184.992050 
	C1483.769653,184.992050 1479.607666,185.179916 1475.472534,184.928055 
	C1472.565796,184.750992 1471.448120,185.865326 1470.707642,188.592468 
	C1468.266968,197.582565 1465.504028,206.484680 1462.917847,215.435883 
	C1460.799561,222.767593 1458.756958,230.121170 1456.680908,237.465073 
	C1456.377930,237.446533 1456.075073,237.427994 1455.772217,237.409454 
	C1451.175781,219.972198 1446.579224,202.534943 1442.012939,185.212250 
	C1436.491333,185.212250 1431.534546,185.212250 1426.315308,185.212250 
	C1421.793213,202.833878 1417.307129,220.315735 1412.820923,237.797577 
	C1412.511597,237.770889 1412.202148,237.744217 1411.892700,237.717529 
	C1406.849243,220.203812 1401.805786,202.690109 1396.797363,185.297821 
	C1390.924683,185.297821 1385.537598,185.297821 1379.743286,185.297821 
	C1387.587769,210.414459 1395.308350,235.134094 1403.076782,260.007233 
	C1407.767212,260.007233 1412.103760,260.224243 1416.394531,259.876465 
	C1417.700684,259.770599 1419.590088,258.343781 1419.996704,257.118469 
	C1421.828369,251.600006 1423.223267,245.936600 1424.960205,239.529480 
M745.244141,185.499954 
	C745.244141,210.256760 745.244141,235.013580 745.244141,259.750061 
	C751.403442,259.750061 756.843140,259.750061 762.510193,259.750061 
	C762.686890,256.827728 762.849426,254.139435 763.036865,251.039734 
	C763.887085,251.690323 764.296631,251.927277 764.611145,252.255371 
	C780.341431,268.663727 807.524109,263.043915 815.024841,241.617920 
	C819.272522,229.484543 819.265259,216.956848 815.491882,204.743011 
	C808.615967,182.486847 781.426880,176.034348 764.888550,192.469345 
	C764.408020,192.946930 763.756531,193.252487 762.602478,194.031006 
	C762.602478,181.014038 762.602478,168.730942 762.602478,156.266998 
	C756.709229,156.266998 751.170166,156.266998 745.244324,156.266998 
	C745.244324,165.899460 745.244324,175.199707 745.244141,185.499954 
M1500.445190,199.507355 
	C1500.445190,229.249588 1500.445190,258.991821 1500.445190,288.612213 
	C1506.689209,288.612213 1512.255005,288.612213 1517.997314,288.612213 
	C1517.997314,282.069153 1517.997314,275.917267 1517.997314,269.765350 
	C1517.997314,263.677307 1517.997314,257.589233 1517.997314,250.597794 
	C1519.160400,251.606705 1519.630127,251.961685 1520.039307,252.376389 
	C1536.211426,268.770477 1563.539429,262.750244 1570.546631,240.970779 
	C1574.458374,228.812790 1574.346558,216.297668 1570.495483,204.093353 
	C1566.617065,191.802322 1557.074341,184.699173 1544.805908,183.814728 
	C1534.488037,183.070892 1525.459106,185.452560 1517.988281,195.098816 
	C1517.988281,190.870407 1517.988281,188.150116 1517.988281,185.303253 
	C1511.948486,185.303253 1506.399780,185.303253 1500.445557,185.303253 
	C1500.445557,189.905243 1500.445557,194.208740 1500.445190,199.507355 
M1055.242676,232.499954 
	C1055.242676,241.594971 1055.242676,250.689987 1055.242676,259.747253 
	C1061.406006,259.747253 1066.841797,259.747253 1072.757324,259.747253 
	C1072.757324,257.698059 1072.752563,255.906815 1072.758179,254.115616 
	C1072.801270,240.290436 1072.640869,226.460541 1072.959106,212.641663 
	C1073.192139,202.526047 1078.403687,197.779602 1088.363525,197.725571 
	C1098.091309,197.672806 1102.130737,201.611786 1102.607178,212.215729 
	C1102.905884,218.865967 1102.692383,225.539490 1102.697021,232.202576 
	C1102.703369,241.342575 1102.698608,250.482590 1102.698608,259.641693 
	C1108.670044,259.641693 1114.222656,259.641693 1119.876587,259.641693 
	C1119.876587,242.296448 1120.319824,225.305634 1119.747070,208.349136 
	C1119.215454,192.611099 1109.916260,184.281738 1094.139404,183.639526 
	C1085.710327,183.296417 1078.566162,185.658783 1072.631348,194.080261 
	C1072.631348,180.286194 1072.631348,168.351944 1072.631348,156.277710 
	C1066.687866,156.277710 1061.149292,156.277710 1055.242920,156.277710 
	C1055.242920,181.582520 1055.242920,206.541229 1055.242676,232.499954 
M1200.728760,248.884216 
	C1204.655640,260.009979 1204.655640,260.009979 1216.275879,260.009430 
	C1216.775513,260.009399 1217.292236,259.925385 1217.772217,260.022644 
	C1221.821899,260.843048 1223.491089,258.897614 1224.829834,255.174118 
	C1236.027710,224.030945 1247.450439,192.968704 1258.787720,161.875626 
	C1259.277710,160.531815 1259.594727,159.124924 1260.131958,157.263702 
	C1254.779419,157.263702 1249.965210,157.448639 1245.174194,157.194519 
	C1242.288208,157.041458 1241.070679,158.183746 1240.199341,160.781631 
	C1232.637695,183.328583 1224.973511,205.841202 1217.321045,228.357651 
	C1216.331909,231.268036 1215.235840,234.142014 1213.835449,238.010605 
	C1212.910156,235.507492 1212.372925,234.156616 1211.908203,232.781235 
	C1203.867310,208.990189 1195.862427,185.186935 1187.739502,161.424026 
	C1187.216309,159.893280 1185.878662,157.567123 1184.782715,157.486938 
	C1179.259033,157.082809 1173.689819,157.301331 1167.560547,157.301331 
	C1178.722290,188.173080 1189.567749,218.169800 1200.728760,248.884216 
M945.399414,189.023987 
	C934.736694,182.414413 923.312561,182.313873 911.744324,185.621536 
	C902.753113,188.192368 896.312012,194.143082 892.944336,202.894287 
	C888.033081,215.656845 887.623962,228.841400 892.835632,241.394989 
	C895.120850,246.899368 899.502502,252.662643 904.514038,255.689285 
	C918.260132,263.991180 933.097290,263.555023 947.408508,256.594696 
	C954.134766,253.323303 957.781555,247.249954 959.086182,239.283508 
	C953.619080,239.283508 948.798401,239.149506 943.995117,239.379852 
	C942.827271,239.435867 941.140808,240.429001 940.681702,241.440186 
	C938.870422,245.430267 935.567871,246.900574 931.650513,247.662689 
	C916.916321,250.529160 906.470947,242.401917 907.575317,228.230881 
	C924.879639,228.230881 942.247925,228.230881 959.542847,228.230881 
	C961.107788,210.106842 956.800720,198.026230 945.399414,189.023987 
M1321.738159,230.190063 
	C1323.206665,229.575211 1324.669800,228.441788 1326.144531,228.426453 
	C1339.469360,228.287857 1352.796143,228.345062 1366.122437,228.344894 
	C1368.714844,228.344864 1371.307251,228.344894 1375.428101,228.344894 
	C1373.945801,219.488998 1373.664917,211.185242 1371.075439,203.677734 
	C1365.147705,186.492279 1345.794922,179.149094 1326.066040,185.617157 
	C1317.885132,188.299194 1311.592529,193.360031 1308.179565,201.220367 
	C1302.276245,214.816284 1301.937500,228.910721 1307.602661,242.524902 
	C1316.024170,262.762177 1352.642944,268.509583 1367.485352,252.262909 
	C1370.731812,248.709244 1373.244019,244.710388 1373.145874,239.266907 
	C1369.344238,239.266907 1365.862183,239.332306 1362.383545,239.249054 
	C1358.692383,239.160736 1355.064209,238.766144 1353.693970,243.616653 
	C1353.366943,244.774307 1351.628540,245.759476 1350.327759,246.380936 
	C1337.117798,252.692093 1323.790283,245.535690 1321.738159,230.190063 
M1625.726929,261.079559 
	C1643.748169,260.074066 1655.668945,248.198059 1657.471069,228.270447 
	C1660.385254,196.046616 1641.523193,179.597656 1611.855347,184.456589 
	C1596.982666,186.892395 1587.491333,197.596329 1585.151611,212.397522 
	C1581.925293,232.807159 1587.614136,248.999435 1600.770264,256.596039 
	C1602.623657,257.666199 1604.629395,258.821045 1606.685059,259.126984 
	C1612.711304,260.023834 1618.798218,260.512115 1625.726929,261.079559 
M373.929565,113.500000 
	C373.929565,216.268311 373.929565,319.036621 373.929565,421.756592 
	C377.086365,421.756592 379.636017,421.756592 382.051361,421.756592 
	C382.051361,291.438171 382.051361,161.523575 382.051361,31.407166 
	C379.281006,31.407166 376.866089,31.407166 373.929535,31.407166 
	C373.929535,58.599728 373.929535,85.549866 373.929565,113.500000 
M1775.554932,252.387848 
	C1775.399292,237.081848 1775.695801,221.753860 1774.952637,206.476440 
	C1774.291870,192.895523 1765.219604,184.751343 1751.715088,183.813904 
	C1742.644165,183.184265 1734.550049,184.772202 1728.374268,193.955688 
	C1728.156738,190.049271 1728.024658,187.678284 1727.891235,185.281677 
	C1722.101807,185.281677 1716.692749,185.281677 1711.208740,185.281677 
	C1711.208740,210.261887 1711.208740,234.954742 1711.208740,259.708862 
	C1716.931396,259.708862 1722.334351,259.708862 1728.107422,259.708862 
	C1728.107422,246.632538 1728.048828,233.847778 1728.141846,221.064102 
	C1728.170776,217.086243 1728.259155,213.050812 1728.933105,209.147552 
	C1730.408447,200.602844 1736.097046,197.050781 1746.410400,197.771637 
	C1753.682373,198.279907 1757.664429,202.495468 1757.952637,210.752991 
	C1758.248535,219.232193 1758.094116,227.727509 1758.113281,236.215836 
	C1758.130859,243.989685 1758.117065,251.763596 1758.117065,259.641144 
	C1764.177368,259.641144 1769.699341,259.641144 1775.554321,259.641144 
	C1775.554321,257.304413 1775.554321,255.327927 1775.554932,252.387848 
M847.807861,260.005402 
	C852.565613,260.005402 857.323364,260.005402 862.407288,260.005402 
	C862.407288,230.491623 862.407288,201.722015 862.407288,172.319000 
	C872.793274,172.319000 882.843811,172.319000 892.994385,172.319000 
	C892.994385,167.074585 892.994385,162.469482 892.994385,157.627228 
	C866.396851,157.627228 840.035767,157.627228 813.467529,157.627228 
	C813.467529,162.563950 813.467529,167.158325 813.467529,172.343719 
	C823.734009,172.343719 833.800720,172.343719 844.470093,172.343719 
	C844.470093,174.877899 844.470093,176.827835 844.470093,178.777786 
	C844.470154,204.255905 844.440308,229.734116 844.535400,255.211884 
	C844.541992,256.960083 843.045105,259.931702 847.807861,260.005402 
M1895.969604,251.344894 
	C1903.954590,239.095367 1899.811890,224.838501 1886.470459,219.127075 
	C1883.288452,217.764862 1879.859619,216.977814 1876.541504,215.935059 
	C1871.493652,214.348785 1866.270386,213.168152 1861.447144,211.067474 
	C1857.311401,209.266235 1856.380737,204.206207 1858.879883,200.984436 
	C1863.449951,195.092484 1877.790771,196.559204 1881.085693,203.185837 
	C1881.666504,204.353958 1882.773804,206.054794 1883.722534,206.112183 
	C1888.617798,206.408463 1893.540771,206.249695 1898.692261,206.249695 
	C1898.125122,196.771164 1894.112671,190.218765 1886.021240,186.829956 
	C1874.780884,182.122314 1863.280640,182.202194 1852.127197,187.128830 
	C1844.679565,190.418549 1840.523193,196.487503 1840.232788,204.765259 
	C1839.944580,212.978409 1844.015137,218.880539 1851.121582,222.392395 
	C1856.509644,225.054993 1862.278198,226.966019 1867.931885,229.064789 
	C1871.186157,230.272842 1874.653076,230.944122 1877.835327,232.300629 
	C1881.544067,233.881516 1883.336548,237.378387 1881.888062,240.882141 
	C1880.867798,243.349838 1878.023071,245.898529 1875.462158,246.686920 
	C1872.101074,247.721603 1868.214355,247.194290 1864.560425,247.093826 
	C1860.330566,246.977539 1857.358643,245.000824 1855.945801,240.796326 
	C1855.595947,239.755142 1854.505859,238.230133 1853.699219,238.193863 
	C1848.465576,237.958511 1843.216309,238.073151 1837.979858,238.073151 
	C1838.152832,248.151672 1843.568604,255.639160 1852.989258,258.966156 
	C1862.525024,262.333862 1872.429688,262.389160 1881.966064,259.725098 
	C1886.828003,258.366882 1891.014526,254.591110 1895.969604,251.344894 
M998.884766,246.095444 
	C994.060730,244.360947 991.388611,240.658737 990.055054,235.968964 
	C987.636597,227.464066 987.502075,218.843216 989.756714,210.301819 
	C992.040344,201.650391 996.732361,198.042450 1005.430420,197.724289 
	C1016.023499,197.336823 1019.265808,199.442917 1022.680847,208.944290 
	C1028.234131,208.944290 1033.785645,208.944290 1039.571045,208.944290 
	C1039.098145,200.649963 1035.208740,194.767181 1029.033203,190.195908 
	C1020.613708,183.963440 1010.986267,182.921799 1000.978882,183.993698 
	C987.963440,185.387756 978.512146,191.790146 973.843811,204.314941 
	C970.256287,213.939957 970.219971,223.896545 971.940247,233.875137 
	C974.482361,248.619827 983.204712,257.891388 997.853943,260.536346 
	C1003.338135,261.526550 1009.184814,261.437439 1014.756470,260.831390 
	C1028.379272,259.349548 1039.359619,248.337631 1039.765015,236.209106 
	C1034.179077,236.209106 1028.600586,236.209106 1022.830444,236.209106 
	C1021.589966,241.999878 1018.660767,246.386292 1012.506897,246.899261 
	C1008.266602,247.252716 1003.941284,246.586700 998.884766,246.095444 
M654.518311,223.500061 
	C654.518311,201.562408 654.518311,179.624741 654.518311,157.583221 
	C648.214844,157.583221 642.634827,157.583221 636.769836,157.583221 
	C636.769836,191.784500 636.769836,225.696655 636.769836,259.668030 
	C657.392334,259.668030 677.776855,259.668030 698.107422,259.668030 
	C698.107422,254.619568 698.107422,249.910980 698.107422,244.826447 
	C683.417786,244.826447 669.135620,244.826447 654.517944,244.826447 
	C654.517944,237.792191 654.517944,231.146118 654.518311,223.500061 
M1815.232300,215.502243 
	C1815.232300,210.074142 1815.232300,204.646057 1815.232300,198.866318 
	C1820.727661,198.866318 1825.501099,198.866318 1830.432007,198.866318 
	C1830.432007,194.096588 1830.432007,189.710693 1830.432007,184.757538 
	C1825.229370,184.757538 1820.345459,184.757538 1815.104248,184.757538 
	C1815.104248,177.598282 1815.104248,171.002914 1815.104248,164.358093 
	C1809.198730,164.358093 1803.680664,164.358093 1797.817627,164.358093 
	C1797.817627,171.376999 1797.817627,177.977600 1797.817627,185.170319 
	C1793.760498,185.170319 1790.047485,185.170319 1786.389404,185.170319 
	C1786.389404,190.040100 1786.389404,194.300171 1786.389404,199.150146 
	C1790.364990,199.150146 1794.081787,199.150146 1798.006348,199.150146 
	C1798.006348,213.715469 1797.947388,227.682526 1798.027710,241.648804 
	C1798.078857,250.536713 1801.558838,256.369629 1809.471436,258.274780 
	C1816.219849,259.899628 1823.366455,259.870667 1830.503662,260.590088 
	C1830.503662,255.013535 1830.503662,250.755188 1830.503662,245.931778 
	C1825.381348,245.931778 1820.489014,245.931778 1815.232300,245.931778 
	C1815.232300,235.744827 1815.232300,226.123215 1815.232300,215.502243 
M1673.449219,247.482758 
	C1673.449219,251.574112 1673.449219,255.665466 1673.449219,259.591797 
	C1679.737427,259.591797 1685.298218,259.591797 1690.728027,259.591797 
	C1690.728027,234.601944 1690.728027,210.023529 1690.728027,185.318924 
	C1684.916992,185.318924 1679.376099,185.318924 1673.449585,185.318924 
	C1673.449585,205.921127 1673.449585,226.204285 1673.449219,247.482758 
M1285.196045,184.997864 
	C1280.588379,184.997864 1275.980713,184.997864 1271.344604,184.997864 
	C1271.344604,210.294952 1271.344604,234.996658 1271.344604,259.803589 
	C1277.126587,259.803589 1282.567627,259.803589 1287.917358,259.803589 
	C1288.156372,259.313019 1288.424683,259.018890 1288.425293,258.724182 
	C1288.479004,235.078735 1288.539429,211.433136 1288.443604,187.788208 
	C1288.439819,186.856171 1286.930420,185.930237 1285.196045,184.997864 
M725.395996,258.958527 
	C725.395996,234.387878 725.395996,209.817230 725.395996,185.417572 
	C719.248901,185.417572 713.691345,185.417572 708.292236,185.417572 
	C708.292236,210.422729 708.292236,235.006653 708.292236,259.728760 
	C714.016907,259.728760 719.464355,259.728760 725.395996,258.958527 
M1288.735107,173.120972 
	C1288.735107,167.539001 1288.735107,161.957047 1288.735107,156.307816 
	C1282.463989,156.307816 1276.624878,156.307816 1270.832275,156.307816 
	C1270.832275,162.381470 1270.832275,168.077301 1270.832275,173.801392 
	C1276.842651,173.801392 1282.465820,173.801392 1288.735107,173.120972 
M713.622742,155.936340 
	C711.703003,155.936340 709.783325,155.936340 707.781860,155.936340 
	C707.781860,162.288010 707.781860,168.009521 707.781860,173.594666 
	C713.964233,173.594666 719.826843,173.594666 725.625610,173.594666 
	C725.625610,167.602264 725.625610,162.024231 725.625610,155.936340 
	C721.789124,155.936340 718.187256,155.936340 713.622742,155.936340 
M1691.224487,158.634796 
	C1690.396362,157.739182 1689.603638,156.110657 1688.734131,156.068649 
	C1683.644287,155.822784 1678.536255,155.947983 1673.309570,155.947983 
	C1673.309570,162.209869 1673.309570,167.919662 1673.309570,173.732162 
	C1679.351074,173.732162 1685.086060,173.732162 1691.228882,173.732162 
	C1691.228882,168.851547 1691.228882,164.232864 1691.224487,158.634796 
z"/>
<path fill="#5D5A62" opacity="1.000000" stroke="none" 
	d="
M121.381111,302.683228 
	C81.745583,288.810760 51.839695,263.433136 29.414654,228.799667 
	C27.260609,225.472946 24.916298,222.057831 23.793274,218.341400 
	C22.878298,215.313431 22.425406,211.057037 23.870884,208.565643 
	C51.828995,160.377655 91.766602,128.011429 147.776703,119.256805 
	C206.065979,110.145935 257.095428,126.202164 298.484802,168.753662 
	C309.863556,180.451920 318.713318,194.674347 328.141083,208.146149 
	C329.812775,210.534897 329.954926,215.661224 328.532013,218.297348 
	C308.565704,255.287064 279.697510,282.918091 240.537430,298.841248 
	C201.554489,314.692413 161.803879,315.070892 121.381111,302.683228 
M165.326447,161.589066 
	C134.603058,169.900574 118.713120,194.651337 124.373802,225.378433 
	C129.452377,252.945724 158.854691,272.539185 186.215195,266.588989 
	C216.612000,259.978485 235.015625,230.590927 227.519257,200.810745 
	C221.130142,175.429245 196.685593,156.439789 165.326447,161.589066 
z"/>
<path fill="#1568BD" opacity="1.000000" stroke="none" 
	d="
M512.247986,182.999176 
	C512.248047,174.353195 512.248047,166.207199 512.248047,157.672852 
	C518.279175,157.672852 523.996399,157.672852 530.008789,157.672852 
	C530.008789,191.628250 530.008789,225.552933 530.008789,259.743347 
	C524.222961,259.743347 518.497620,259.743347 512.220581,259.743347 
	C512.220581,244.964325 512.220581,230.385712 512.220581,215.355728 
	C497.390594,215.355728 483.104797,215.278946 468.825409,215.544022 
	C467.956757,215.560135 466.434723,218.276520 466.408600,219.757523 
	C466.205719,231.249924 466.295929,242.747482 466.295502,254.243454 
	C466.295410,256.051392 466.295471,257.859314 466.295471,259.836731 
	C460.230042,259.836731 454.594025,259.836731 448.602356,259.836731 
	C448.602356,225.863449 448.602356,191.963989 448.602356,157.671997 
	C454.280884,157.671997 459.997925,157.671997 466.295471,157.671997 
	C466.295471,165.485092 466.223938,173.277023 466.318024,181.066956 
	C466.393951,187.353333 466.669830,193.637283 466.856995,199.922318 
	C473.282227,200.174149 479.705627,200.551315 486.133179,200.646820 
	C494.611969,200.772812 503.094055,200.677826 512.247925,200.677826 
	C512.247925,194.734283 512.247925,189.116714 512.247986,182.999176 
z"/>
<path fill="#1568BD" opacity="1.000000" stroke="none" 
	d="
M616.850098,170.446747 
	C615.239075,171.370590 613.654541,172.245041 612.062195,172.259613 
	C599.575012,172.373962 587.085388,172.404648 574.598694,172.267578 
	C571.428833,172.232773 570.128906,173.117050 570.235596,176.477280 
	C570.446777,183.130951 570.436584,189.800201 570.238586,196.454712 
	C570.141235,199.726288 571.273438,200.782593 574.530701,200.736588 
	C585.684570,200.579041 596.842163,200.676773 607.998291,200.677139 
	C609.786926,200.677200 611.575562,200.677155 613.556580,200.677155 
	C613.556580,205.721619 613.556580,210.176056 613.556580,215.322861 
	C608.700500,215.322861 603.925171,215.322495 599.149841,215.322952 
	C590.824341,215.323746 582.498169,215.388092 574.173828,215.289322 
	C571.533752,215.258011 570.206970,215.930252 570.254883,218.901733 
	C570.391785,227.382355 570.303040,235.866623 570.303040,244.891785 
	C586.111694,244.891785 601.661743,244.891785 617.477417,244.891785 
	C617.477417,250.022797 617.477417,254.616821 617.477417,259.612366 
	C595.959473,259.612366 574.428223,259.612366 552.570984,259.612366 
	C552.570984,225.802750 552.570984,191.920166 552.570984,157.658325 
	C573.799072,157.658325 595.000427,157.658325 616.872925,157.658325 
	C616.872925,161.801086 616.872925,165.900040 616.850098,170.446747 
z"/>
<path fill="#5F5C64" opacity="1.000000" stroke="none" 
	d="
M1424.867920,239.927460 
	C1423.223267,245.936600 1421.828369,251.600006 1419.996704,257.118469 
	C1419.590088,258.343781 1417.700684,259.770599 1416.394531,259.876465 
	C1412.103760,260.224243 1407.767212,260.007233 1403.076782,260.007233 
	C1395.308350,235.134094 1387.587769,210.414459 1379.743286,185.297821 
	C1385.537598,185.297821 1390.924683,185.297821 1396.797363,185.297821 
	C1401.805786,202.690109 1406.849243,220.203812 1411.892700,237.717529 
	C1412.202148,237.744217 1412.511597,237.770889 1412.820923,237.797577 
	C1417.307129,220.315735 1421.793213,202.833878 1426.315308,185.212250 
	C1431.534546,185.212250 1436.491333,185.212250 1442.012939,185.212250 
	C1446.579224,202.534943 1451.175781,219.972198 1455.772217,237.409454 
	C1456.075073,237.427994 1456.377930,237.446533 1456.680908,237.465073 
	C1458.756958,230.121170 1460.799561,222.767593 1462.917847,215.435883 
	C1465.504028,206.484680 1468.266968,197.582565 1470.707642,188.592468 
	C1471.448120,185.865326 1472.565796,184.750992 1475.472534,184.928055 
	C1479.607666,185.179916 1483.769653,184.992050 1488.654419,184.992050 
	C1480.812988,210.167068 1473.123779,234.853531 1465.376709,259.725525 
	C1459.866821,259.725525 1454.608643,259.725525 1448.997559,259.725525 
	C1444.235107,242.206375 1439.463135,224.651810 1434.691162,207.097244 
	C1434.300415,207.068527 1433.909668,207.039810 1433.518921,207.011093 
	C1430.666016,217.850555 1427.813110,228.690018 1424.867920,239.927460 
z"/>
<path fill="#1668BD" opacity="1.000000" stroke="none" 
	d="
M745.244263,184.999954 
	C745.244324,175.199707 745.244324,165.899460 745.244324,156.266998 
	C751.170166,156.266998 756.709229,156.266998 762.602478,156.266998 
	C762.602478,168.730942 762.602478,181.014038 762.602478,194.031006 
	C763.756531,193.252487 764.408020,192.946930 764.888550,192.469345 
	C781.426880,176.034348 808.615967,182.486847 815.491882,204.743011 
	C819.265259,216.956848 819.272522,229.484543 815.024841,241.617920 
	C807.524109,263.043915 780.341431,268.663727 764.611145,252.255371 
	C764.296631,251.927277 763.887085,251.690323 763.036865,251.039734 
	C762.849426,254.139435 762.686890,256.827728 762.510193,259.750061 
	C756.843140,259.750061 751.403442,259.750061 745.244141,259.750061 
	C745.244141,235.013580 745.244141,210.256760 745.244263,184.999954 
M799.955994,214.052917 
	C799.724182,213.084824 799.529907,212.105896 799.254517,211.150345 
	C796.492798,201.565842 790.724304,197.136505 781.181580,197.254623 
	C771.663025,197.372467 765.452454,201.909012 764.014832,211.914352 
	C762.948792,219.333771 763.106995,227.200577 764.320740,234.605698 
	C765.758850,243.379456 772.272156,247.665848 781.235657,247.745560 
	C790.253784,247.825760 796.845703,243.753281 798.703491,235.203766 
	C800.124878,228.662659 799.675720,221.715073 799.955994,214.052917 
z"/>
<path fill="#5E5B63" opacity="1.000000" stroke="none" 
	d="
M1500.445312,199.009796 
	C1500.445557,194.208740 1500.445557,189.905243 1500.445557,185.303253 
	C1506.399780,185.303253 1511.948486,185.303253 1517.988281,185.303253 
	C1517.988281,188.150116 1517.988281,190.870407 1517.988281,195.098816 
	C1525.459106,185.452560 1534.488037,183.070892 1544.805908,183.814728 
	C1557.074341,184.699173 1566.617065,191.802322 1570.495483,204.093353 
	C1574.346558,216.297668 1574.458374,228.812790 1570.546631,240.970779 
	C1563.539429,262.750244 1536.211426,268.770477 1520.039307,252.376389 
	C1519.630127,251.961685 1519.160400,251.606705 1517.997314,250.597794 
	C1517.997314,257.589233 1517.997314,263.677307 1517.997314,269.765350 
	C1517.997314,275.917267 1517.997314,282.069153 1517.997314,288.612213 
	C1512.255005,288.612213 1506.689209,288.612213 1500.445190,288.612213 
	C1500.445190,258.991821 1500.445190,229.249588 1500.445312,199.009796 
M1555.777588,224.324554 
	C1555.285767,219.714203 1555.315552,214.972198 1554.192505,210.521088 
	C1551.894775,201.413513 1545.470703,196.965103 1536.199463,197.251266 
	C1527.053589,197.533569 1520.763306,202.043076 1519.321777,211.145035 
	C1518.222778,218.085449 1518.112183,225.422318 1519.036987,232.387009 
	C1520.420288,242.804337 1526.782593,247.733490 1536.663696,247.751678 
	C1546.602295,247.769974 1552.990234,242.357391 1554.928101,232.161514 
	C1555.361328,229.881500 1555.501099,227.545700 1555.777588,224.324554 
z"/>
<path fill="#1669BE" opacity="1.000000" stroke="none" 
	d="
M1055.242798,231.999939 
	C1055.242920,206.541229 1055.242920,181.582520 1055.242920,156.277710 
	C1061.149292,156.277710 1066.687866,156.277710 1072.631348,156.277710 
	C1072.631348,168.351944 1072.631348,180.286194 1072.631348,194.080261 
	C1078.566162,185.658783 1085.710327,183.296417 1094.139404,183.639526 
	C1109.916260,184.281738 1119.215454,192.611099 1119.747070,208.349136 
	C1120.319824,225.305634 1119.876587,242.296448 1119.876587,259.641693 
	C1114.222656,259.641693 1108.670044,259.641693 1102.698608,259.641693 
	C1102.698608,250.482590 1102.703369,241.342575 1102.697021,232.202576 
	C1102.692383,225.539490 1102.905884,218.865967 1102.607178,212.215729 
	C1102.130737,201.611786 1098.091309,197.672806 1088.363525,197.725571 
	C1078.403687,197.779602 1073.192139,202.526047 1072.959106,212.641663 
	C1072.640869,226.460541 1072.801270,240.290436 1072.758179,254.115616 
	C1072.752563,255.906815 1072.757324,257.698059 1072.757324,259.747253 
	C1066.841797,259.747253 1061.406006,259.747253 1055.242676,259.747253 
	C1055.242676,250.689987 1055.242676,241.594971 1055.242798,231.999939 
z"/>
<path fill="#5F5C64" opacity="1.000000" stroke="none" 
	d="
M1200.571045,248.525375 
	C1189.567749,218.169800 1178.722290,188.173080 1167.560547,157.301331 
	C1173.689819,157.301331 1179.259033,157.082809 1184.782715,157.486938 
	C1185.878662,157.567123 1187.216309,159.893280 1187.739502,161.424026 
	C1195.862427,185.186935 1203.867310,208.990189 1211.908203,232.781235 
	C1212.372925,234.156616 1212.910156,235.507492 1213.835449,238.010605 
	C1215.235840,234.142014 1216.331909,231.268036 1217.321045,228.357651 
	C1224.973511,205.841202 1232.637695,183.328583 1240.199341,160.781631 
	C1241.070679,158.183746 1242.288208,157.041458 1245.174194,157.194519 
	C1249.965210,157.448639 1254.779419,157.263702 1260.131958,157.263702 
	C1259.594727,159.124924 1259.277710,160.531815 1258.787720,161.875626 
	C1247.450439,192.968704 1236.027710,224.030945 1224.829834,255.174118 
	C1223.491089,258.897614 1221.821899,260.843048 1217.772217,260.022644 
	C1217.292236,259.925385 1216.775513,260.009399 1216.275879,260.009430 
	C1204.655640,260.009979 1204.655640,260.009979 1200.571045,248.525375 
z"/>
<path fill="#1468BD" opacity="1.000000" stroke="none" 
	d="
M945.698975,189.229492 
	C956.800720,198.026230 961.107788,210.106842 959.542847,228.230881 
	C942.247925,228.230881 924.879639,228.230881 907.575317,228.230881 
	C906.470947,242.401917 916.916321,250.529160 931.650513,247.662689 
	C935.567871,246.900574 938.870422,245.430267 940.681702,241.440186 
	C941.140808,240.429001 942.827271,239.435867 943.995117,239.379852 
	C948.798401,239.149506 953.619080,239.283508 959.086182,239.283508 
	C957.781555,247.249954 954.134766,253.323303 947.408508,256.594696 
	C933.097290,263.555023 918.260132,263.991180 904.514038,255.689285 
	C899.502502,252.662643 895.120850,246.899368 892.835632,241.394989 
	C887.623962,228.841400 888.033081,215.656845 892.944336,202.894287 
	C896.312012,194.143082 902.753113,188.192368 911.744324,185.621536 
	C923.312561,182.313873 934.736694,182.414413 945.698975,189.229492 
M921.506165,215.289581 
	C928.284729,215.289581 935.063293,215.289581 941.789917,215.289581 
	C942.660034,204.393326 936.183960,197.179977 925.874451,197.006042 
	C914.265076,196.810196 907.260620,203.660904 907.656555,215.289764 
	C911.923828,215.289764 916.217102,215.289764 921.506165,215.289581 
z"/>
<path fill="#5F5C64" opacity="1.000000" stroke="none" 
	d="
M1321.760498,230.657318 
	C1323.790283,245.535690 1337.117798,252.692093 1350.327759,246.380936 
	C1351.628540,245.759476 1353.366943,244.774307 1353.693970,243.616653 
	C1355.064209,238.766144 1358.692383,239.160736 1362.383545,239.249054 
	C1365.862183,239.332306 1369.344238,239.266907 1373.145874,239.266907 
	C1373.244019,244.710388 1370.731812,248.709244 1367.485352,252.262909 
	C1352.642944,268.509583 1316.024170,262.762177 1307.602661,242.524902 
	C1301.937500,228.910721 1302.276245,214.816284 1308.179565,201.220367 
	C1311.592529,193.360031 1317.885132,188.299194 1326.066040,185.617157 
	C1345.794922,179.149094 1365.147705,186.492279 1371.075439,203.677734 
	C1373.664917,211.185242 1373.945801,219.488998 1375.428101,228.344894 
	C1371.307251,228.344894 1368.714844,228.344864 1366.122437,228.344894 
	C1352.796143,228.345062 1339.469360,228.287857 1326.144531,228.426453 
	C1324.669800,228.441788 1323.206665,229.575211 1321.760498,230.657318 
M1355.829346,207.998367 
	C1351.625488,198.318436 1344.103760,194.932938 1333.445435,197.923462 
	C1325.903442,200.039581 1321.411621,206.966629 1322.444458,214.957550 
	C1333.847534,214.957550 1345.255737,214.957550 1357.089966,214.957550 
	C1356.688843,212.643814 1356.353638,210.710480 1355.829346,207.998367 
z"/>
<path fill="#5F5C64" opacity="1.000000" stroke="none" 
	d="
M1625.294189,261.119995 
	C1618.798218,260.512115 1612.711304,260.023834 1606.685059,259.126984 
	C1604.629395,258.821045 1602.623657,257.666199 1600.770264,256.596039 
	C1587.614136,248.999435 1581.925293,232.807159 1585.151611,212.397522 
	C1587.491333,197.596329 1596.982666,186.892395 1611.855347,184.456589 
	C1641.523193,179.597656 1660.385254,196.046616 1657.471069,228.270447 
	C1655.668945,248.198059 1643.748169,260.074066 1625.294189,261.119995 
M1615.249146,198.093185 
	C1608.207031,200.003677 1603.818848,204.867752 1603.128540,211.782471 
	C1602.380249,219.280045 1602.191528,227.084717 1603.450684,234.466873 
	C1604.972534,243.387802 1611.322754,247.259491 1621.008423,247.270767 
	C1630.778931,247.282120 1637.250000,243.514740 1638.637329,234.615036 
	C1639.889038,226.585602 1639.788086,218.043808 1638.518677,210.006760 
	C1637.224976,201.817627 1631.035767,197.973495 1622.587646,197.755478 
	C1620.431885,197.699844 1618.269043,197.907578 1615.249146,198.093185 
z"/>
<path fill="#5C5961" opacity="1.000000" stroke="none" 
	d="
M373.929565,113.000000 
	C373.929535,85.549866 373.929535,58.599728 373.929535,31.407166 
	C376.866089,31.407166 379.281006,31.407166 382.051361,31.407166 
	C382.051361,161.523575 382.051361,291.438171 382.051361,421.756592 
	C379.636017,421.756592 377.086365,421.756592 373.929565,421.756592 
	C373.929565,319.036621 373.929565,216.268311 373.929565,113.000000 
z"/>
<path fill="#5E5B63" opacity="1.000000" stroke="none" 
	d="
M1775.554688,252.869644 
	C1775.554321,255.327927 1775.554321,257.304413 1775.554321,259.641144 
	C1769.699341,259.641144 1764.177368,259.641144 1758.117065,259.641144 
	C1758.117065,251.763596 1758.130859,243.989685 1758.113281,236.215836 
	C1758.094116,227.727509 1758.248535,219.232193 1757.952637,210.752991 
	C1757.664429,202.495468 1753.682373,198.279907 1746.410400,197.771637 
	C1736.097046,197.050781 1730.408447,200.602844 1728.933105,209.147552 
	C1728.259155,213.050812 1728.170776,217.086243 1728.141846,221.064102 
	C1728.048828,233.847778 1728.107422,246.632538 1728.107422,259.708862 
	C1722.334351,259.708862 1716.931396,259.708862 1711.208740,259.708862 
	C1711.208740,234.954742 1711.208740,210.261887 1711.208740,185.281677 
	C1716.692749,185.281677 1722.101807,185.281677 1727.891235,185.281677 
	C1728.024658,187.678284 1728.156738,190.049271 1728.374268,193.955688 
	C1734.550049,184.772202 1742.644165,183.184265 1751.715088,183.813904 
	C1765.219604,184.751343 1774.291870,192.895523 1774.952637,206.476440 
	C1775.695801,221.753860 1775.399292,237.081848 1775.554688,252.869644 
z"/>
<path fill="#1367BD" opacity="1.000000" stroke="none" 
	d="
M847.344482,260.003723 
	C843.045105,259.931702 844.541992,256.960083 844.535400,255.211884 
	C844.440308,229.734116 844.470154,204.255905 844.470093,178.777786 
	C844.470093,176.827835 844.470093,174.877899 844.470093,172.343719 
	C833.800720,172.343719 823.734009,172.343719 813.467529,172.343719 
	C813.467529,167.158325 813.467529,162.563950 813.467529,157.627228 
	C840.035767,157.627228 866.396851,157.627228 892.994385,157.627228 
	C892.994385,162.469482 892.994385,167.074585 892.994385,172.319000 
	C882.843811,172.319000 872.793274,172.319000 862.407288,172.319000 
	C862.407288,201.722015 862.407288,230.491623 862.407288,260.005402 
	C857.323364,260.005402 852.565613,260.005402 847.344482,260.003723 
z"/>
<path fill="#5F5C64" opacity="1.000000" stroke="none" 
	d="
M1895.738037,251.626511 
	C1891.014526,254.591110 1886.828003,258.366882 1881.966064,259.725098 
	C1872.429688,262.389160 1862.525024,262.333862 1852.989258,258.966156 
	C1843.568604,255.639160 1838.152832,248.151672 1837.979858,238.073151 
	C1843.216309,238.073151 1848.465576,237.958511 1853.699219,238.193863 
	C1854.505859,238.230133 1855.595947,239.755142 1855.945801,240.796326 
	C1857.358643,245.000824 1860.330566,246.977539 1864.560425,247.093826 
	C1868.214355,247.194290 1872.101074,247.721603 1875.462158,246.686920 
	C1878.023071,245.898529 1880.867798,243.349838 1881.888062,240.882141 
	C1883.336548,237.378387 1881.544067,233.881516 1877.835327,232.300629 
	C1874.653076,230.944122 1871.186157,230.272842 1867.931885,229.064789 
	C1862.278198,226.966019 1856.509644,225.054993 1851.121582,222.392395 
	C1844.015137,218.880539 1839.944580,212.978409 1840.232788,204.765259 
	C1840.523193,196.487503 1844.679565,190.418549 1852.127197,187.128830 
	C1863.280640,182.202194 1874.780884,182.122314 1886.021240,186.829956 
	C1894.112671,190.218765 1898.125122,196.771164 1898.692261,206.249695 
	C1893.540771,206.249695 1888.617798,206.408463 1883.722534,206.112183 
	C1882.773804,206.054794 1881.666504,204.353958 1881.085693,203.185837 
	C1877.790771,196.559204 1863.449951,195.092484 1858.879883,200.984436 
	C1856.380737,204.206207 1857.311401,209.266235 1861.447144,211.067474 
	C1866.270386,213.168152 1871.493652,214.348785 1876.541504,215.935059 
	C1879.859619,216.977814 1883.288452,217.764862 1886.470459,219.127075 
	C1899.811890,224.838501 1903.954590,239.095367 1895.738037,251.626511 
z"/>
<path fill="#1467BD" opacity="1.000000" stroke="none" 
	d="
M999.269409,246.235870 
	C1003.941284,246.586700 1008.266602,247.252716 1012.506897,246.899261 
	C1018.660767,246.386292 1021.589966,241.999878 1022.830444,236.209106 
	C1028.600586,236.209106 1034.179077,236.209106 1039.765015,236.209106 
	C1039.359619,248.337631 1028.379272,259.349548 1014.756470,260.831390 
	C1009.184814,261.437439 1003.338135,261.526550 997.853943,260.536346 
	C983.204712,257.891388 974.482361,248.619827 971.940247,233.875137 
	C970.219971,223.896545 970.256287,213.939957 973.843811,204.314941 
	C978.512146,191.790146 987.963440,185.387756 1000.978882,183.993698 
	C1010.986267,182.921799 1020.613708,183.963440 1029.033203,190.195908 
	C1035.208740,194.767181 1039.098145,200.649963 1039.571045,208.944290 
	C1033.785645,208.944290 1028.234131,208.944290 1022.680847,208.944290 
	C1019.265808,199.442917 1016.023499,197.336823 1005.430420,197.724289 
	C996.732361,198.042450 992.040344,201.650391 989.756714,210.301819 
	C987.502075,218.843216 987.636597,227.464066 990.055054,235.968964 
	C991.388611,240.658737 994.060730,244.360947 999.269409,246.235870 
z"/>
<path fill="#1165BC" opacity="1.000000" stroke="none" 
	d="
M654.518127,224.000046 
	C654.517944,231.146118 654.517944,237.792191 654.517944,244.826447 
	C669.135620,244.826447 683.417786,244.826447 698.107422,244.826447 
	C698.107422,249.910980 698.107422,254.619568 698.107422,259.668030 
	C677.776855,259.668030 657.392334,259.668030 636.769836,259.668030 
	C636.769836,225.696655 636.769836,191.784500 636.769836,157.583221 
	C642.634827,157.583221 648.214844,157.583221 654.518311,157.583221 
	C654.518311,179.624741 654.518311,201.562408 654.518127,224.000046 
z"/>
<path fill="#5E5B63" opacity="1.000000" stroke="none" 
	d="
M1815.232300,216.001923 
	C1815.232300,226.123215 1815.232300,235.744827 1815.232300,245.931778 
	C1820.489014,245.931778 1825.381348,245.931778 1830.503662,245.931778 
	C1830.503662,250.755188 1830.503662,255.013535 1830.503662,260.590088 
	C1823.366455,259.870667 1816.219849,259.899628 1809.471436,258.274780 
	C1801.558838,256.369629 1798.078857,250.536713 1798.027710,241.648804 
	C1797.947388,227.682526 1798.006348,213.715469 1798.006348,199.150146 
	C1794.081787,199.150146 1790.364990,199.150146 1786.389404,199.150146 
	C1786.389404,194.300171 1786.389404,190.040100 1786.389404,185.170319 
	C1790.047485,185.170319 1793.760498,185.170319 1797.817627,185.170319 
	C1797.817627,177.977600 1797.817627,171.376999 1797.817627,164.358093 
	C1803.680664,164.358093 1809.198730,164.358093 1815.104248,164.358093 
	C1815.104248,171.002914 1815.104248,177.598282 1815.104248,184.757538 
	C1820.345459,184.757538 1825.229370,184.757538 1830.432007,184.757538 
	C1830.432007,189.710693 1830.432007,194.096588 1830.432007,198.866318 
	C1825.501099,198.866318 1820.727661,198.866318 1815.232300,198.866318 
	C1815.232300,204.646057 1815.232300,210.074142 1815.232300,216.001923 
z"/>
<path fill="#5D5A62" opacity="1.000000" stroke="none" 
	d="
M1673.449463,246.985092 
	C1673.449585,226.204285 1673.449585,205.921127 1673.449585,185.318924 
	C1679.376099,185.318924 1684.916992,185.318924 1690.728027,185.318924 
	C1690.728027,210.023529 1690.728027,234.601944 1690.728027,259.591797 
	C1685.298218,259.591797 1679.737427,259.591797 1673.449219,259.591797 
	C1673.449219,255.665466 1673.449219,251.574112 1673.449463,246.985092 
z"/>
<path fill="#5D5A62" opacity="1.000000" stroke="none" 
	d="
M1285.659302,184.999664 
	C1286.930420,185.930237 1288.439819,186.856171 1288.443604,187.788208 
	C1288.539429,211.433136 1288.479004,235.078735 1288.425293,258.724182 
	C1288.424683,259.018890 1288.156372,259.313019 1287.917358,259.803589 
	C1282.567627,259.803589 1277.126587,259.803589 1271.344604,259.803589 
	C1271.344604,234.996658 1271.344604,210.294952 1271.344604,184.997864 
	C1275.980713,184.997864 1280.588379,184.997864 1285.659302,184.999664 
z"/>
<path fill="#1266BC" opacity="1.000000" stroke="none" 
	d="
M725.153870,259.343628 
	C719.464355,259.728760 714.016907,259.728760 708.292236,259.728760 
	C708.292236,235.006653 708.292236,210.422729 708.292236,185.417572 
	C713.691345,185.417572 719.248901,185.417572 725.395996,185.417572 
	C725.395996,209.817230 725.395996,234.387878 725.153870,259.343628 
z"/>
<path fill="#5E5B63" opacity="1.000000" stroke="none" 
	d="
M1288.412109,173.461182 
	C1282.465820,173.801392 1276.842651,173.801392 1270.832275,173.801392 
	C1270.832275,168.077301 1270.832275,162.381470 1270.832275,156.307816 
	C1276.624878,156.307816 1282.463989,156.307816 1288.735107,156.307816 
	C1288.735107,161.957047 1288.735107,167.539001 1288.412109,173.461182 
z"/>
<path fill="#1367BD" opacity="1.000000" stroke="none" 
	d="
M714.104126,155.936340 
	C718.187256,155.936340 721.789124,155.936340 725.625610,155.936340 
	C725.625610,162.024231 725.625610,167.602264 725.625610,173.594666 
	C719.826843,173.594666 713.964233,173.594666 707.781860,173.594666 
	C707.781860,168.009521 707.781860,162.288010 707.781860,155.936340 
	C709.783325,155.936340 711.703003,155.936340 714.104126,155.936340 
z"/>
<path fill="#5D5A62" opacity="1.000000" stroke="none" 
	d="
M1691.226685,159.124496 
	C1691.228882,164.232864 1691.228882,168.851547 1691.228882,173.732162 
	C1685.086060,173.732162 1679.351074,173.732162 1673.309570,173.732162 
	C1673.309570,167.919662 1673.309570,162.209869 1673.309570,155.947983 
	C1678.536255,155.947983 1683.644287,155.822784 1688.734131,156.068649 
	C1689.603638,156.110657 1690.396362,157.739182 1691.226685,159.124496 
z"/>
<path fill="#FDFDFE" opacity="1.000000" stroke="none" 
	d="
M165.736069,161.469269 
	C196.685593,156.439789 221.130142,175.429245 227.519257,200.810745 
	C235.015625,230.590927 216.612000,259.978485 186.215195,266.588989 
	C158.854691,272.539185 129.452377,252.945724 124.373802,225.378433 
	C118.713120,194.651337 134.603058,169.900574 165.736069,161.469269 
M151.123993,224.199493 
	C152.108932,226.276718 152.803558,228.563797 154.127701,230.395859 
	C160.855087,239.703827 172.471390,243.771103 183.238647,240.795731 
	C194.070297,237.802536 201.846115,228.477951 203.048798,217.039841 
	C204.265579,205.467789 198.728165,194.659119 188.923798,189.468750 
	C179.164001,184.301971 166.995697,185.609039 158.589020,192.727219 
	C149.548294,200.382294 146.782135,211.425568 151.123993,224.199493 
z"/>
<path fill="#FCFDFE" opacity="1.000000" stroke="none" 
	d="
M800.007263,214.500610 
	C799.675720,221.715073 800.124878,228.662659 798.703491,235.203766 
	C796.845703,243.753281 790.253784,247.825760 781.235657,247.745560 
	C772.272156,247.665848 765.758850,243.379456 764.320740,234.605698 
	C763.106995,227.200577 762.948792,219.333771 764.014832,211.914352 
	C765.452454,201.909012 771.663025,197.372467 781.181580,197.254623 
	C790.724304,197.136505 796.492798,201.565842 799.254517,211.150345 
	C799.529907,212.105896 799.724182,213.084824 800.007263,214.500610 
z"/>
<path fill="#FDFCFD" opacity="1.000000" stroke="none" 
	d="
M1555.776855,224.780090 
	C1555.501099,227.545700 1555.361328,229.881500 1554.928101,232.161514 
	C1552.990234,242.357391 1546.602295,247.769974 1536.663696,247.751678 
	C1526.782593,247.733490 1520.420288,242.804337 1519.036987,232.387009 
	C1518.112183,225.422318 1518.222778,218.085449 1519.321777,211.145035 
	C1520.763306,202.043076 1527.053589,197.533569 1536.199463,197.251266 
	C1545.470703,196.965103 1551.894775,201.413513 1554.192505,210.521088 
	C1555.315552,214.972198 1555.285767,219.714203 1555.776855,224.780090 
z"/>
<path fill="#FCFDFE" opacity="1.000000" stroke="none" 
	d="
M921.008301,215.289673 
	C916.217102,215.289764 911.923828,215.289764 907.656555,215.289764 
	C907.260620,203.660904 914.265076,196.810196 925.874451,197.006042 
	C936.183960,197.179977 942.660034,204.393326 941.789917,215.289581 
	C935.063293,215.289581 928.284729,215.289581 921.008301,215.289673 
z"/>
<path fill="#FDFCFD" opacity="1.000000" stroke="none" 
	d="
M1355.923950,208.387756 
	C1356.353638,210.710480 1356.688843,212.643814 1357.089966,214.957550 
	C1345.255737,214.957550 1333.847534,214.957550 1322.444458,214.957550 
	C1321.411621,206.966629 1325.903442,200.039581 1333.445435,197.923462 
	C1344.103760,194.932938 1351.625488,198.318436 1355.923950,208.387756 
z"/>
<path fill="#FEFEFE" opacity="1.000000" stroke="none" 
	d="
M1615.679321,198.043762 
	C1618.269043,197.907578 1620.431885,197.699844 1622.587646,197.755478 
	C1631.035767,197.973495 1637.224976,201.817627 1638.518677,210.006760 
	C1639.788086,218.043808 1639.889038,226.585602 1638.637329,234.615036 
	C1637.250000,243.514740 1630.778931,247.282120 1621.008423,247.270767 
	C1611.322754,247.259491 1604.972534,243.387802 1603.450684,234.466873 
	C1602.191528,227.084717 1602.380249,219.280045 1603.128540,211.782471 
	C1603.818848,204.867752 1608.207031,200.003677 1615.679321,198.043762 
z"/>
<path fill="#5D5A62" opacity="1.000000" stroke="none" 
	d="
M151.010223,223.818863 
	C146.782135,211.425568 149.548294,200.382294 158.589020,192.727219 
	C166.995697,185.609039 179.164001,184.301971 188.923798,189.468750 
	C198.728165,194.659119 204.265579,205.467789 203.048798,217.039841 
	C201.846115,228.477951 194.070297,237.802536 183.238647,240.795731 
	C172.471390,243.771103 160.855087,239.703827 154.127701,230.395859 
	C152.803558,228.563797 152.108932,226.276718 151.010223,223.818863 
z"/>
</svg>